<?xml version="1.0" encoding="UTF-8"?>
<svg xmlns="http://www.w3.org/2000/svg" xmlns:xlink="http://www.w3.org/1999/xlink" width="80px" height="80px" viewBox="0 0 80 80" version="1.1">
<g id="surface1">
<path style=" stroke:none;fill-rule:nonzero;fill:rgb(0%,0%,0%);fill-opacity:1;" d="M 54.34375 15.328125 C 52.265625 15.546875 50.40625 16.453125 48.90625 17.984375 C 47.125 19.765625 46.234375 21.96875 46.234375 24.53125 C 46.234375 27.125 47.109375 29.265625 48.96875 31.171875 C 52.546875 34.828125 58.359375 34.796875 62.046875 31.109375 C 67.734375 25.421875 64.171875 15.9375 56.09375 15.28125 C 55.703125 15.25 54.921875 15.265625 54.34375 15.328125 Z M 57.0625 20.15625 C 57.515625 20.328125 58.109375 20.640625 58.359375 20.84375 L 58.828125 21.234375 L 52.171875 27.890625 L 51.78125 27.421875 C 51.578125 27.15625 51.265625 26.578125 51.09375 26.125 C 49.703125 22.453125 53.390625 18.765625 57.0625 20.15625 Z M 57.0625 20.15625 "/>
<path style=" stroke:none;fill-rule:nonzero;fill:rgb(0%,0%,0%);fill-opacity:1;" d="M 22.140625 28.9375 L 16.546875 30.359375 L 11.859375 39.71875 C 9.28125 44.875 7.203125 49.140625 7.25 49.171875 C 7.296875 49.21875 10.859375 48.375 15.1875 47.296875 L 23.03125 45.328125 L 25.78125 48.015625 C 27.296875 49.5 29.90625 52.109375 31.59375 53.828125 L 34.671875 56.96875 L 32.703125 64.8125 C 31.625 69.140625 30.78125 72.703125 30.828125 72.75 C 30.859375 72.796875 35.125 70.71875 40.265625 68.140625 L 49.640625 63.453125 L 51.078125 57.71875 C 51.859375 54.578125 52.484375 51.953125 52.4375 51.921875 C 52.390625 51.875 51.984375 52.0625 51.53125 52.34375 C 50.421875 53.03125 46.578125 55 46.359375 55 C 46.25 55 41.359375 50.1875 35.46875 44.296875 L 24.765625 33.59375 L 25.53125 32.078125 C 25.9375 31.234375 26.65625 29.90625 27.125 29.109375 C 27.59375 28.3125 27.96875 27.640625 27.96875 27.59375 C 27.96875 27.46875 28.265625 27.390625 22.140625 28.9375 Z M 22.140625 28.9375 "/>
</g>
</svg>
